<?xml version="1.0" encoding="UTF-8"?>
<!-- Generator: Adobe Illustrator 18.1.1, SVG Export Plug-In . SVG Version: 6.00 Build 0)  -->
<svg version="1.1" id="Слой_1" xmlns="http://www.w3.org/2000/svg" xmlns:xlink="http://www.w3.org/1999/xlink" x="0px" y="0px" viewBox="0 0 257.1 82.4" style="enable-background:new 0 0 257.1 82.4;" xml:space="preserve">
<style type="text/css">
	.st0{fill:#001D27;}
	.st1{fill:#66A4D4;}
</style>
<path class="st1" d="M62.9,28c-0.3-0.5-1-0.6-1.5-0.3L54.7,32c1.4,2.2,2.2,4.7,2.2,7.5c0,7.6-6.2,13.8-13.8,13.8  c-7.6,0-13.8-6.2-13.8-13.8s6.2-13.8,13.8-13.8c1.8,0,3.5,0.4,5.1,1l-5.1,12.9l7.5-11.6l4.3-6.6c0.3-0.5,0.2-1.2-0.3-1.5  c-1-0.6-2-1.2-3-1.7c-11-5.5-24.6-3.5-33.5,5.5C6.7,34.8,6.7,53.2,18,64.5c11.3,11.3,29.7,11.3,41.1,0C69,54.6,70.3,39.3,62.9,28"/>
<polygon class="st1" points="43.1,39.5 43.1,39.5 43.1,39.5 "/>
<path class="st1" d="M82.6,0c-5.5,1.2-11.2,4.2-16,9c-1.2,1.2-2.3,2.4-3.2,3.7l-4.7-0.6l-2.4,2.4c2.2,1,4.4,2.5,6.4,4.4l-1,1  l1.1,1.1c3-3,4.5-4.5,7.1-7.1L64.6,21c1.5,1.7,2.7,3.6,3.5,5.4l2.4-2.4l-0.6-4.7c1.3-1,2.5-2.1,3.7-3.2C78.3,11.2,81.4,5.5,82.6,0"/>
<path class="st1" d="M111.1,30.6h-10.9c-19.8,0-19.8,26.4,0,26.4h10.9c1.3,0,2.3-1,2.3-2.3v-0.1c0-1.3-1-2.3-2.3-2.3h-10.9  c0,0,0,0,0,0c-12.2-0.5-12.2-16.4,0-16.8c0,0,0,0,0,0h10.9c1.3,0,2.3-1,2.3-2.3V33C113.4,31.7,112.4,30.6,111.1,30.6"/>
<path class="st1" d="M137.9,52.3C137.8,52.3,137.8,52.3,137.9,52.3h-1h-1c0,0,0,0,0,0c-12.2-0.5-12.2-16.4,0-16.8c0,0,0,0,0,0h1h1  c0,0,0,0,0,0C150,35.9,150,51.8,137.9,52.3 M137.9,30.6h-1h-1c-19.8,0-19.8,26.4,0,26.4h1h1C157.7,57,157.7,30.6,137.9,30.6"/>
<path class="st1" d="M256.5,53.2l-8.4-9.4l8.3-9.2c0.6-0.7,0.8-1.7,0.4-2.5c-0.4-0.8-1.2-1.4-2.1-1.4c-1.1,0-2.1,0.5-2.8,1.2  l-7.2,8.1l-7.2-8.1c-0.7-0.8-1.7-1.2-2.8-1.2c-0.9,0-1.7,0.5-2.1,1.4c-0.4,0.8-0.2,1.8,0.4,2.5l8.3,9.2l-8.4,9.4  c-0.6,0.7-0.8,1.7-0.4,2.5c0.4,0.8,1.2,1.4,2.1,1.4c1,0,1.9-0.4,2.5-1.1l7.5-8.4l7.5,8.4c0.6,0.7,1.6,1.1,2.5,1.1  c0.9,0,1.7-0.5,2.1-1.4C257.2,54.8,257.1,53.9,256.5,53.2"/>
<path class="st1" d="M173.5,52.3C173.4,52.3,173.4,52.3,173.5,52.3h-7.8V35.4h7.8c0,0,0,0,0,0C185.7,35.9,185.7,51.8,173.5,52.3   M173.5,30.6h-10.9c-1.3,0-2.3,1-2.3,2.3v21.8c0,1.3,1,2.3,2.3,2.3h10.9C193.3,57,193.3,30.6,173.5,30.6"/>
<path class="st1" d="M220.9,30.6H210c-19.8,0-19.8,26.4,0,26.4h10.9c1.3,0,2.3-1,2.3-2.3v-0.1c0-1.3-1-2.3-2.3-2.3H210c0,0,0,0,0,0  c-12.2-0.5-12.2-16.4,0-16.8c0,0,0,0,0,0h10.9c1.3,0,2.3-1,2.3-2.3V33C223.2,31.7,222.2,30.6,220.9,30.6"/>
<path class="st1" d="M209.2,41.4c-1.3,0-2.4,1.1-2.4,2.4s1.1,2.4,2.4,2.4c0,0,0,0,0,0h10.9c1.3,0,2.3-1,2.3-2.3v-0.1  c0-1.3-1-2.3-2.3-2.3H209.2z"/>
</svg>
